<mxfile host="app.diagrams.net" modified="2025-02-20T09:58:26.838Z" agent="Mozilla/5.0 (Macintosh; Intel Mac OS X 10_15_7) AppleWebKit/537.36 (KHTML, like Gecko) Chrome/133.0.0.0 Safari/537.36" etag="HlhC3SQA0z6WuEcPzUdV" version="24.2.0" type="device">
  <diagram id="R2lEEEUBdFMjLlhIrx00" name="Page-1">
    <mxGraphModel dx="1857" dy="1152" grid="0" gridSize="10" guides="1" tooltips="1" connect="1" arrows="1" fold="1" page="1" pageScale="1" pageWidth="850" pageHeight="1100" math="0" shadow="0" extFonts="Permanent Marker^https://fonts.googleapis.com/css?family=Permanent+Marker">
      <root>
        <mxCell id="0" />
        <mxCell id="1" parent="0" />
        <mxCell id="LSYzsi996Ukaq7QPT6zm-1" value="start" style="rounded=0;whiteSpace=wrap;html=1;fillColor=#d5e8d4;strokeColor=#82b366;" vertex="1" parent="1">
          <mxGeometry x="105" y="340" width="60" height="30" as="geometry" />
        </mxCell>
        <mxCell id="LSYzsi996Ukaq7QPT6zm-2" value="" style="endArrow=classic;html=1;rounded=0;exitX=1;exitY=0.5;exitDx=0;exitDy=0;entryX=0;entryY=0.5;entryDx=0;entryDy=0;" edge="1" parent="1" source="LSYzsi996Ukaq7QPT6zm-1" target="LSYzsi996Ukaq7QPT6zm-9">
          <mxGeometry width="50" height="50" relative="1" as="geometry">
            <mxPoint x="455" y="540" as="sourcePoint" />
            <mxPoint x="215" y="355" as="targetPoint" />
          </mxGeometry>
        </mxCell>
        <mxCell id="LSYzsi996Ukaq7QPT6zm-3" value="Login Page" style="rounded=0;whiteSpace=wrap;html=1;fillColor=#e1d5e7;strokeColor=#9673a6;" vertex="1" parent="1">
          <mxGeometry x="335" y="340" width="90" height="30" as="geometry" />
        </mxCell>
        <mxCell id="LSYzsi996Ukaq7QPT6zm-4" value="Sign up page" style="rounded=0;whiteSpace=wrap;html=1;fillColor=#e1d5e7;strokeColor=#9673a6;" vertex="1" parent="1">
          <mxGeometry x="335" y="280" width="90" height="30" as="geometry" />
        </mxCell>
        <mxCell id="LSYzsi996Ukaq7QPT6zm-7" value="" style="endArrow=classic;startArrow=classic;html=1;rounded=0;exitX=0.5;exitY=0;exitDx=0;exitDy=0;entryX=0.5;entryY=1;entryDx=0;entryDy=0;" edge="1" parent="1" source="LSYzsi996Ukaq7QPT6zm-3" target="LSYzsi996Ukaq7QPT6zm-4">
          <mxGeometry width="50" height="50" relative="1" as="geometry">
            <mxPoint x="585" y="540" as="sourcePoint" />
            <mxPoint x="635" y="490" as="targetPoint" />
          </mxGeometry>
        </mxCell>
        <mxCell id="LSYzsi996Ukaq7QPT6zm-9" value="Landing Page" style="rounded=0;whiteSpace=wrap;html=1;fillColor=#e1d5e7;strokeColor=#9673a6;" vertex="1" parent="1">
          <mxGeometry x="205" y="340" width="90" height="30" as="geometry" />
        </mxCell>
        <mxCell id="LSYzsi996Ukaq7QPT6zm-10" value="" style="endArrow=classic;html=1;rounded=0;exitX=1;exitY=0.5;exitDx=0;exitDy=0;entryX=0;entryY=0.5;entryDx=0;entryDy=0;" edge="1" parent="1" source="LSYzsi996Ukaq7QPT6zm-9" target="LSYzsi996Ukaq7QPT6zm-3">
          <mxGeometry width="50" height="50" relative="1" as="geometry">
            <mxPoint x="455" y="540" as="sourcePoint" />
            <mxPoint x="505" y="490" as="targetPoint" />
          </mxGeometry>
        </mxCell>
        <mxCell id="LSYzsi996Ukaq7QPT6zm-12" value="Explore Page" style="rounded=0;whiteSpace=wrap;html=1;fillColor=#e1d5e7;strokeColor=#9673a6;" vertex="1" parent="1">
          <mxGeometry x="335" y="440" width="90" height="30" as="geometry" />
        </mxCell>
        <mxCell id="LSYzsi996Ukaq7QPT6zm-13" value="" style="endArrow=classic;html=1;rounded=0;exitX=0.5;exitY=1;exitDx=0;exitDy=0;entryX=0.5;entryY=0;entryDx=0;entryDy=0;" edge="1" parent="1" source="LSYzsi996Ukaq7QPT6zm-3" target="LSYzsi996Ukaq7QPT6zm-12">
          <mxGeometry width="50" height="50" relative="1" as="geometry">
            <mxPoint x="455" y="540" as="sourcePoint" />
            <mxPoint x="505" y="490" as="targetPoint" />
          </mxGeometry>
        </mxCell>
        <mxCell id="LSYzsi996Ukaq7QPT6zm-16" value="Add Listing" style="rounded=0;whiteSpace=wrap;html=1;fillColor=#e1d5e7;strokeColor=#9673a6;" vertex="1" parent="1">
          <mxGeometry x="168" y="750" width="90" height="30" as="geometry" />
        </mxCell>
        <mxCell id="LSYzsi996Ukaq7QPT6zm-17" value="Favourites" style="rounded=0;whiteSpace=wrap;html=1;fillColor=#e1d5e7;strokeColor=#9673a6;" vertex="1" parent="1">
          <mxGeometry x="165" y="440" width="90" height="30" as="geometry" />
        </mxCell>
        <mxCell id="LSYzsi996Ukaq7QPT6zm-18" value="User Profile" style="rounded=0;whiteSpace=wrap;html=1;fillColor=#e1d5e7;strokeColor=#9673a6;" vertex="1" parent="1">
          <mxGeometry x="305" y="890" width="90" height="30" as="geometry" />
        </mxCell>
        <mxCell id="LSYzsi996Ukaq7QPT6zm-19" value="Chat" style="rounded=0;whiteSpace=wrap;html=1;fillColor=#e1d5e7;strokeColor=#9673a6;" vertex="1" parent="1">
          <mxGeometry x="505" y="870" width="90" height="30" as="geometry" />
        </mxCell>
        <mxCell id="LSYzsi996Ukaq7QPT6zm-20" value="Indiv Listing" style="rounded=0;whiteSpace=wrap;html=1;fillColor=#e1d5e7;strokeColor=#9673a6;" vertex="1" parent="1">
          <mxGeometry x="505" y="730" width="90" height="30" as="geometry" />
        </mxCell>
        <mxCell id="LSYzsi996Ukaq7QPT6zm-22" value="" style="endArrow=classic;html=1;rounded=0;exitX=0;exitY=0.25;exitDx=0;exitDy=0;entryX=1;entryY=0.25;entryDx=0;entryDy=0;" edge="1" parent="1" source="LSYzsi996Ukaq7QPT6zm-12" target="LSYzsi996Ukaq7QPT6zm-17">
          <mxGeometry width="50" height="50" relative="1" as="geometry">
            <mxPoint x="455" y="570" as="sourcePoint" />
            <mxPoint x="505" y="520" as="targetPoint" />
            <Array as="points" />
          </mxGeometry>
        </mxCell>
        <mxCell id="LSYzsi996Ukaq7QPT6zm-23" value="Logout" style="ellipse;whiteSpace=wrap;html=1;fillColor=#b1ddf0;strokeColor=#10739e;" vertex="1" parent="1">
          <mxGeometry x="505" y="1030" width="90" height="50" as="geometry" />
        </mxCell>
        <mxCell id="LSYzsi996Ukaq7QPT6zm-25" value="Ratings" style="ellipse;whiteSpace=wrap;html=1;fillColor=#b1ddf0;strokeColor=#10739e;" vertex="1" parent="1">
          <mxGeometry x="305" y="1030" width="90" height="50" as="geometry" />
        </mxCell>
        <mxCell id="LSYzsi996Ukaq7QPT6zm-26" value="Introduction" style="ellipse;whiteSpace=wrap;html=1;fillColor=#b1ddf0;strokeColor=#10739e;" vertex="1" parent="1">
          <mxGeometry x="205" y="1030" width="90" height="50" as="geometry" />
        </mxCell>
        <mxCell id="LSYzsi996Ukaq7QPT6zm-27" value="Sports" style="ellipse;whiteSpace=wrap;html=1;fillColor=#b1ddf0;strokeColor=#10739e;" vertex="1" parent="1">
          <mxGeometry x="105" y="1030" width="90" height="50" as="geometry" />
        </mxCell>
        <mxCell id="LSYzsi996Ukaq7QPT6zm-28" value="User&#39;s Listings" style="ellipse;whiteSpace=wrap;html=1;fillColor=#b1ddf0;strokeColor=#10739e;" vertex="1" parent="1">
          <mxGeometry x="405" y="1030" width="90" height="50" as="geometry" />
        </mxCell>
        <mxCell id="LSYzsi996Ukaq7QPT6zm-31" value="" style="endArrow=classic;html=1;rounded=0;exitX=0.917;exitY=0.927;exitDx=0;exitDy=0;entryX=0.336;entryY=0.067;entryDx=0;entryDy=0;exitPerimeter=0;entryPerimeter=0;" edge="1" parent="1" source="LSYzsi996Ukaq7QPT6zm-18" target="LSYzsi996Ukaq7QPT6zm-23">
          <mxGeometry width="50" height="50" relative="1" as="geometry">
            <mxPoint x="455" y="820" as="sourcePoint" />
            <mxPoint x="505" y="770" as="targetPoint" />
          </mxGeometry>
        </mxCell>
        <mxCell id="LSYzsi996Ukaq7QPT6zm-35" value="" style="endArrow=classic;html=1;rounded=0;exitX=0.75;exitY=1;exitDx=0;exitDy=0;entryX=0.423;entryY=0.001;entryDx=0;entryDy=0;entryPerimeter=0;" edge="1" parent="1" source="LSYzsi996Ukaq7QPT6zm-18" target="LSYzsi996Ukaq7QPT6zm-28">
          <mxGeometry width="50" height="50" relative="1" as="geometry">
            <mxPoint x="635" y="910" as="sourcePoint" />
            <mxPoint x="685" y="805" as="targetPoint" />
          </mxGeometry>
        </mxCell>
        <mxCell id="LSYzsi996Ukaq7QPT6zm-36" value="" style="endArrow=classic;html=1;rounded=0;exitX=0.5;exitY=1;exitDx=0;exitDy=0;entryX=0.5;entryY=0;entryDx=0;entryDy=0;" edge="1" parent="1" source="LSYzsi996Ukaq7QPT6zm-18" target="LSYzsi996Ukaq7QPT6zm-25">
          <mxGeometry width="50" height="50" relative="1" as="geometry">
            <mxPoint x="635" y="918" as="sourcePoint" />
            <mxPoint x="685" y="865" as="targetPoint" />
          </mxGeometry>
        </mxCell>
        <mxCell id="LSYzsi996Ukaq7QPT6zm-37" value="" style="endArrow=classic;html=1;rounded=0;exitX=0.177;exitY=0.963;exitDx=0;exitDy=0;entryX=0.5;entryY=0;entryDx=0;entryDy=0;exitPerimeter=0;" edge="1" parent="1" source="LSYzsi996Ukaq7QPT6zm-18" target="LSYzsi996Ukaq7QPT6zm-26">
          <mxGeometry width="50" height="50" relative="1" as="geometry">
            <mxPoint x="635" y="925" as="sourcePoint" />
            <mxPoint x="685" y="925" as="targetPoint" />
          </mxGeometry>
        </mxCell>
        <mxCell id="LSYzsi996Ukaq7QPT6zm-38" value="" style="endArrow=classic;html=1;rounded=0;exitX=0;exitY=1;exitDx=0;exitDy=0;entryX=0.5;entryY=0;entryDx=0;entryDy=0;" edge="1" parent="1" source="LSYzsi996Ukaq7QPT6zm-18" target="LSYzsi996Ukaq7QPT6zm-27">
          <mxGeometry width="50" height="50" relative="1" as="geometry">
            <mxPoint x="635" y="933" as="sourcePoint" />
            <mxPoint x="685" y="985" as="targetPoint" />
          </mxGeometry>
        </mxCell>
        <mxCell id="LSYzsi996Ukaq7QPT6zm-39" value="" style="endArrow=classic;html=1;rounded=0;exitX=0.164;exitY=1.005;exitDx=0;exitDy=0;entryX=0.5;entryY=0;entryDx=0;entryDy=0;exitPerimeter=0;" edge="1" parent="1" source="LSYzsi996Ukaq7QPT6zm-12" target="LSYzsi996Ukaq7QPT6zm-18">
          <mxGeometry width="50" height="50" relative="1" as="geometry">
            <mxPoint x="455" y="560" as="sourcePoint" />
            <mxPoint x="505" y="510" as="targetPoint" />
            <Array as="points" />
          </mxGeometry>
        </mxCell>
        <mxCell id="LSYzsi996Ukaq7QPT6zm-41" value="Sport Name" style="ellipse;whiteSpace=wrap;html=1;fillColor=#b1ddf0;strokeColor=#10739e;" vertex="1" parent="1">
          <mxGeometry x="715" y="540" width="90" height="50" as="geometry" />
        </mxCell>
        <mxCell id="LSYzsi996Ukaq7QPT6zm-42" value="No. players" style="ellipse;whiteSpace=wrap;html=1;fillColor=#b1ddf0;strokeColor=#10739e;" vertex="1" parent="1">
          <mxGeometry x="715" y="600" width="90" height="50" as="geometry" />
        </mxCell>
        <mxCell id="LSYzsi996Ukaq7QPT6zm-43" value="Location" style="ellipse;whiteSpace=wrap;html=1;fillColor=#b1ddf0;strokeColor=#10739e;" vertex="1" parent="1">
          <mxGeometry x="715" y="660" width="90" height="50" as="geometry" />
        </mxCell>
        <mxCell id="LSYzsi996Ukaq7QPT6zm-44" value="Time" style="ellipse;whiteSpace=wrap;html=1;fillColor=#b1ddf0;strokeColor=#10739e;" vertex="1" parent="1">
          <mxGeometry x="715" y="720" width="90" height="50" as="geometry" />
        </mxCell>
        <mxCell id="LSYzsi996Ukaq7QPT6zm-45" value="Experience level" style="ellipse;whiteSpace=wrap;html=1;fillColor=#b1ddf0;strokeColor=#10739e;" vertex="1" parent="1">
          <mxGeometry x="715" y="780" width="90" height="50" as="geometry" />
        </mxCell>
        <mxCell id="LSYzsi996Ukaq7QPT6zm-46" value="Description" style="ellipse;whiteSpace=wrap;html=1;fillColor=#b1ddf0;strokeColor=#10739e;" vertex="1" parent="1">
          <mxGeometry x="715" y="840" width="90" height="50" as="geometry" />
        </mxCell>
        <mxCell id="LSYzsi996Ukaq7QPT6zm-48" style="edgeStyle=orthogonalEdgeStyle;rounded=0;orthogonalLoop=1;jettySize=auto;html=1;exitX=0.5;exitY=1;exitDx=0;exitDy=0;" edge="1" parent="1" source="LSYzsi996Ukaq7QPT6zm-17" target="LSYzsi996Ukaq7QPT6zm-17">
          <mxGeometry relative="1" as="geometry" />
        </mxCell>
        <mxCell id="LSYzsi996Ukaq7QPT6zm-50" value="Remove" style="ellipse;whiteSpace=wrap;html=1;fillColor=#b1ddf0;strokeColor=#10739e;" vertex="1" parent="1">
          <mxGeometry x="45" y="410" width="90" height="50" as="geometry" />
        </mxCell>
        <mxCell id="LSYzsi996Ukaq7QPT6zm-51" value="View" style="ellipse;whiteSpace=wrap;html=1;fillColor=#b1ddf0;strokeColor=#10739e;" vertex="1" parent="1">
          <mxGeometry x="45" y="470" width="90" height="50" as="geometry" />
        </mxCell>
        <mxCell id="LSYzsi996Ukaq7QPT6zm-53" value="" style="endArrow=classic;html=1;rounded=0;exitX=0;exitY=0.25;exitDx=0;exitDy=0;entryX=1;entryY=0.5;entryDx=0;entryDy=0;" edge="1" parent="1" source="LSYzsi996Ukaq7QPT6zm-17" target="LSYzsi996Ukaq7QPT6zm-50">
          <mxGeometry width="50" height="50" relative="1" as="geometry">
            <mxPoint x="405" y="510" as="sourcePoint" />
            <mxPoint x="455" y="460" as="targetPoint" />
          </mxGeometry>
        </mxCell>
        <mxCell id="LSYzsi996Ukaq7QPT6zm-54" value="" style="endArrow=classic;html=1;rounded=0;exitX=0;exitY=0.5;exitDx=0;exitDy=0;entryX=1;entryY=0.5;entryDx=0;entryDy=0;" edge="1" parent="1" source="LSYzsi996Ukaq7QPT6zm-17" target="LSYzsi996Ukaq7QPT6zm-51">
          <mxGeometry width="50" height="50" relative="1" as="geometry">
            <mxPoint x="175" y="458" as="sourcePoint" />
            <mxPoint x="145" y="445" as="targetPoint" />
          </mxGeometry>
        </mxCell>
        <mxCell id="LSYzsi996Ukaq7QPT6zm-55" value="" style="endArrow=classic;html=1;rounded=0;exitX=0;exitY=0.75;exitDx=0;exitDy=0;entryX=0.5;entryY=0;entryDx=0;entryDy=0;" edge="1" parent="1" source="LSYzsi996Ukaq7QPT6zm-12" target="LSYzsi996Ukaq7QPT6zm-16">
          <mxGeometry width="50" height="50" relative="1" as="geometry">
            <mxPoint x="405" y="580" as="sourcePoint" />
            <mxPoint x="455" y="530" as="targetPoint" />
          </mxGeometry>
        </mxCell>
        <mxCell id="LSYzsi996Ukaq7QPT6zm-58" value="Sport Name" style="ellipse;whiteSpace=wrap;html=1;fillColor=#b1ddf0;strokeColor=#10739e;" vertex="1" parent="1">
          <mxGeometry x="45" y="560" width="90" height="50" as="geometry" />
        </mxCell>
        <mxCell id="LSYzsi996Ukaq7QPT6zm-59" value="No. players" style="ellipse;whiteSpace=wrap;html=1;fillColor=#b1ddf0;strokeColor=#10739e;" vertex="1" parent="1">
          <mxGeometry x="45" y="620" width="90" height="50" as="geometry" />
        </mxCell>
        <mxCell id="LSYzsi996Ukaq7QPT6zm-60" value="Location" style="ellipse;whiteSpace=wrap;html=1;fillColor=#b1ddf0;strokeColor=#10739e;" vertex="1" parent="1">
          <mxGeometry x="45" y="680" width="90" height="50" as="geometry" />
        </mxCell>
        <mxCell id="LSYzsi996Ukaq7QPT6zm-61" value="Date &amp;amp; Time" style="ellipse;whiteSpace=wrap;html=1;fillColor=#b1ddf0;strokeColor=#10739e;" vertex="1" parent="1">
          <mxGeometry x="45" y="740" width="90" height="50" as="geometry" />
        </mxCell>
        <mxCell id="LSYzsi996Ukaq7QPT6zm-62" value="Experience level" style="ellipse;whiteSpace=wrap;html=1;fillColor=#b1ddf0;strokeColor=#10739e;" vertex="1" parent="1">
          <mxGeometry x="45" y="804" width="90" height="50" as="geometry" />
        </mxCell>
        <mxCell id="LSYzsi996Ukaq7QPT6zm-63" value="Description" style="ellipse;whiteSpace=wrap;html=1;fillColor=#b1ddf0;strokeColor=#10739e;" vertex="1" parent="1">
          <mxGeometry x="45" y="867" width="90" height="50" as="geometry" />
        </mxCell>
        <mxCell id="LSYzsi996Ukaq7QPT6zm-64" value="" style="endArrow=classic;html=1;rounded=0;exitX=0;exitY=0;exitDx=0;exitDy=0;entryX=1;entryY=0.5;entryDx=0;entryDy=0;" edge="1" parent="1" source="LSYzsi996Ukaq7QPT6zm-16" target="LSYzsi996Ukaq7QPT6zm-58">
          <mxGeometry width="50" height="50" relative="1" as="geometry">
            <mxPoint x="405" y="660" as="sourcePoint" />
            <mxPoint x="455" y="610" as="targetPoint" />
          </mxGeometry>
        </mxCell>
        <mxCell id="LSYzsi996Ukaq7QPT6zm-65" value="" style="endArrow=classic;html=1;rounded=0;entryX=1;entryY=0.5;entryDx=0;entryDy=0;exitX=0;exitY=0.25;exitDx=0;exitDy=0;" edge="1" parent="1" source="LSYzsi996Ukaq7QPT6zm-16" target="LSYzsi996Ukaq7QPT6zm-59">
          <mxGeometry width="50" height="50" relative="1" as="geometry">
            <mxPoint x="175" y="650" as="sourcePoint" />
            <mxPoint x="145" y="595" as="targetPoint" />
          </mxGeometry>
        </mxCell>
        <mxCell id="LSYzsi996Ukaq7QPT6zm-66" value="" style="endArrow=classic;html=1;rounded=0;entryX=1;entryY=0.5;entryDx=0;entryDy=0;exitX=0;exitY=0.5;exitDx=0;exitDy=0;" edge="1" parent="1" source="LSYzsi996Ukaq7QPT6zm-16" target="LSYzsi996Ukaq7QPT6zm-60">
          <mxGeometry width="50" height="50" relative="1" as="geometry">
            <mxPoint x="175" y="650" as="sourcePoint" />
            <mxPoint x="145" y="655" as="targetPoint" />
          </mxGeometry>
        </mxCell>
        <mxCell id="LSYzsi996Ukaq7QPT6zm-67" value="" style="endArrow=classic;html=1;rounded=0;entryX=1;entryY=0.5;entryDx=0;entryDy=0;exitX=0;exitY=0.5;exitDx=0;exitDy=0;" edge="1" parent="1" source="LSYzsi996Ukaq7QPT6zm-16" target="LSYzsi996Ukaq7QPT6zm-61">
          <mxGeometry width="50" height="50" relative="1" as="geometry">
            <mxPoint x="167" y="765" as="sourcePoint" />
            <mxPoint x="145" y="715" as="targetPoint" />
          </mxGeometry>
        </mxCell>
        <mxCell id="LSYzsi996Ukaq7QPT6zm-68" value="" style="endArrow=classic;html=1;rounded=0;entryX=1;entryY=0.5;entryDx=0;entryDy=0;exitX=0;exitY=0.75;exitDx=0;exitDy=0;" edge="1" parent="1" source="LSYzsi996Ukaq7QPT6zm-16" target="LSYzsi996Ukaq7QPT6zm-62">
          <mxGeometry width="50" height="50" relative="1" as="geometry">
            <mxPoint x="169" y="777" as="sourcePoint" />
            <mxPoint x="140" y="763" as="targetPoint" />
          </mxGeometry>
        </mxCell>
        <mxCell id="LSYzsi996Ukaq7QPT6zm-69" value="" style="endArrow=classic;html=1;rounded=0;exitX=0;exitY=0.75;exitDx=0;exitDy=0;entryX=1;entryY=0.5;entryDx=0;entryDy=0;" edge="1" parent="1" source="LSYzsi996Ukaq7QPT6zm-16" target="LSYzsi996Ukaq7QPT6zm-63">
          <mxGeometry width="50" height="50" relative="1" as="geometry">
            <mxPoint x="208" y="680" as="sourcePoint" />
            <mxPoint x="83" y="870" as="targetPoint" />
          </mxGeometry>
        </mxCell>
        <mxCell id="LSYzsi996Ukaq7QPT6zm-70" value="" style="endArrow=classic;html=1;rounded=0;entryX=0;entryY=0.5;entryDx=0;entryDy=0;exitX=1;exitY=0;exitDx=0;exitDy=0;" edge="1" parent="1" source="LSYzsi996Ukaq7QPT6zm-20" target="LSYzsi996Ukaq7QPT6zm-41">
          <mxGeometry width="50" height="50" relative="1" as="geometry">
            <mxPoint x="415" y="820" as="sourcePoint" />
            <mxPoint x="465" y="770" as="targetPoint" />
          </mxGeometry>
        </mxCell>
        <mxCell id="LSYzsi996Ukaq7QPT6zm-71" value="" style="endArrow=classic;html=1;rounded=0;entryX=0;entryY=0.5;entryDx=0;entryDy=0;exitX=1;exitY=0.25;exitDx=0;exitDy=0;" edge="1" parent="1" source="LSYzsi996Ukaq7QPT6zm-20" target="LSYzsi996Ukaq7QPT6zm-42">
          <mxGeometry width="50" height="50" relative="1" as="geometry">
            <mxPoint x="560" y="740" as="sourcePoint" />
            <mxPoint x="645" y="605" as="targetPoint" />
          </mxGeometry>
        </mxCell>
        <mxCell id="LSYzsi996Ukaq7QPT6zm-72" value="" style="endArrow=classic;html=1;rounded=0;entryX=0;entryY=0.5;entryDx=0;entryDy=0;" edge="1" parent="1" target="LSYzsi996Ukaq7QPT6zm-43">
          <mxGeometry width="50" height="50" relative="1" as="geometry">
            <mxPoint x="595" y="740" as="sourcePoint" />
            <mxPoint x="645" y="665" as="targetPoint" />
          </mxGeometry>
        </mxCell>
        <mxCell id="LSYzsi996Ukaq7QPT6zm-73" value="" style="endArrow=classic;html=1;rounded=0;entryX=0;entryY=0.5;entryDx=0;entryDy=0;exitX=1;exitY=0.5;exitDx=0;exitDy=0;" edge="1" parent="1" source="LSYzsi996Ukaq7QPT6zm-20" target="LSYzsi996Ukaq7QPT6zm-44">
          <mxGeometry width="50" height="50" relative="1" as="geometry">
            <mxPoint x="605" y="748" as="sourcePoint" />
            <mxPoint x="645" y="725" as="targetPoint" />
          </mxGeometry>
        </mxCell>
        <mxCell id="LSYzsi996Ukaq7QPT6zm-76" value="" style="endArrow=classic;html=1;rounded=0;entryX=0;entryY=0.5;entryDx=0;entryDy=0;exitX=1;exitY=0.75;exitDx=0;exitDy=0;" edge="1" parent="1" source="LSYzsi996Ukaq7QPT6zm-20" target="LSYzsi996Ukaq7QPT6zm-45">
          <mxGeometry width="50" height="50" relative="1" as="geometry">
            <mxPoint x="605" y="755" as="sourcePoint" />
            <mxPoint x="645" y="785" as="targetPoint" />
          </mxGeometry>
        </mxCell>
        <mxCell id="LSYzsi996Ukaq7QPT6zm-77" value="" style="endArrow=classic;html=1;rounded=0;entryX=0;entryY=0.5;entryDx=0;entryDy=0;exitX=1;exitY=0.75;exitDx=0;exitDy=0;" edge="1" parent="1" source="LSYzsi996Ukaq7QPT6zm-20" target="LSYzsi996Ukaq7QPT6zm-46">
          <mxGeometry width="50" height="50" relative="1" as="geometry">
            <mxPoint x="605" y="763" as="sourcePoint" />
            <mxPoint x="725" y="855" as="targetPoint" />
          </mxGeometry>
        </mxCell>
        <mxCell id="LSYzsi996Ukaq7QPT6zm-78" value="" style="endArrow=classic;html=1;rounded=0;exitX=0.5;exitY=1;exitDx=0;exitDy=0;entryX=0.5;entryY=0;entryDx=0;entryDy=0;" edge="1" parent="1" source="LSYzsi996Ukaq7QPT6zm-20" target="LSYzsi996Ukaq7QPT6zm-19">
          <mxGeometry width="50" height="50" relative="1" as="geometry">
            <mxPoint x="415" y="810" as="sourcePoint" />
            <mxPoint x="465" y="760" as="targetPoint" />
          </mxGeometry>
        </mxCell>
        <mxCell id="LSYzsi996Ukaq7QPT6zm-79" value="" style="endArrow=classic;html=1;rounded=0;exitX=0.75;exitY=1;exitDx=0;exitDy=0;entryX=0;entryY=0.5;entryDx=0;entryDy=0;" edge="1" parent="1" source="LSYzsi996Ukaq7QPT6zm-12" target="LSYzsi996Ukaq7QPT6zm-20">
          <mxGeometry width="50" height="50" relative="1" as="geometry">
            <mxPoint x="405" y="710" as="sourcePoint" />
            <mxPoint x="455" y="660" as="targetPoint" />
            <Array as="points">
              <mxPoint x="403" y="745" />
            </Array>
          </mxGeometry>
        </mxCell>
        <mxCell id="LSYzsi996Ukaq7QPT6zm-80" value="Introduction" style="ellipse;whiteSpace=wrap;html=1;fillColor=#b1ddf0;strokeColor=#10739e;" vertex="1" parent="1">
          <mxGeometry x="305" y="200" width="90" height="50" as="geometry" />
        </mxCell>
        <mxCell id="LSYzsi996Ukaq7QPT6zm-81" value="Number of Users" style="ellipse;whiteSpace=wrap;html=1;fillColor=#b1ddf0;strokeColor=#10739e;" vertex="1" parent="1">
          <mxGeometry x="205" y="200" width="90" height="50" as="geometry" />
        </mxCell>
        <mxCell id="LSYzsi996Ukaq7QPT6zm-82" value="Reviews" style="ellipse;whiteSpace=wrap;html=1;fillColor=#b1ddf0;strokeColor=#10739e;" vertex="1" parent="1">
          <mxGeometry x="105" y="200" width="90" height="50" as="geometry" />
        </mxCell>
        <mxCell id="LSYzsi996Ukaq7QPT6zm-83" value="" style="endArrow=classic;html=1;rounded=0;exitX=0.5;exitY=0;exitDx=0;exitDy=0;entryX=0.5;entryY=1;entryDx=0;entryDy=0;" edge="1" parent="1" source="LSYzsi996Ukaq7QPT6zm-9" target="LSYzsi996Ukaq7QPT6zm-81">
          <mxGeometry width="50" height="50" relative="1" as="geometry">
            <mxPoint x="340" y="370" as="sourcePoint" />
            <mxPoint x="390" y="320" as="targetPoint" />
          </mxGeometry>
        </mxCell>
        <mxCell id="LSYzsi996Ukaq7QPT6zm-84" value="" style="endArrow=classic;html=1;rounded=0;exitX=0.25;exitY=0;exitDx=0;exitDy=0;entryX=0.5;entryY=1;entryDx=0;entryDy=0;" edge="1" parent="1" source="LSYzsi996Ukaq7QPT6zm-9" target="LSYzsi996Ukaq7QPT6zm-82">
          <mxGeometry width="50" height="50" relative="1" as="geometry">
            <mxPoint x="260" y="350" as="sourcePoint" />
            <mxPoint x="260" y="260" as="targetPoint" />
          </mxGeometry>
        </mxCell>
        <mxCell id="LSYzsi996Ukaq7QPT6zm-85" value="" style="endArrow=classic;html=1;rounded=0;exitX=0.75;exitY=0;exitDx=0;exitDy=0;entryX=0.5;entryY=1;entryDx=0;entryDy=0;" edge="1" parent="1" source="LSYzsi996Ukaq7QPT6zm-9" target="LSYzsi996Ukaq7QPT6zm-80">
          <mxGeometry width="50" height="50" relative="1" as="geometry">
            <mxPoint x="238" y="350" as="sourcePoint" />
            <mxPoint x="160" y="260" as="targetPoint" />
          </mxGeometry>
        </mxCell>
        <mxCell id="LSYzsi996Ukaq7QPT6zm-86" value="Search Bar" style="ellipse;whiteSpace=wrap;html=1;fillColor=#b1ddf0;strokeColor=#10739e;" vertex="1" parent="1">
          <mxGeometry x="470" y="390" width="90" height="50" as="geometry" />
        </mxCell>
        <mxCell id="LSYzsi996Ukaq7QPT6zm-87" value="Recommended Listings" style="ellipse;whiteSpace=wrap;html=1;fillColor=#b1ddf0;strokeColor=#10739e;" vertex="1" parent="1">
          <mxGeometry x="470" y="470" width="90" height="50" as="geometry" />
        </mxCell>
        <mxCell id="LSYzsi996Ukaq7QPT6zm-88" value="" style="endArrow=classic;html=1;rounded=0;exitX=1;exitY=0.25;exitDx=0;exitDy=0;entryX=0;entryY=0.5;entryDx=0;entryDy=0;" edge="1" parent="1" source="LSYzsi996Ukaq7QPT6zm-12" target="LSYzsi996Ukaq7QPT6zm-86">
          <mxGeometry width="50" height="50" relative="1" as="geometry">
            <mxPoint x="450" y="590" as="sourcePoint" />
            <mxPoint x="500" y="540" as="targetPoint" />
          </mxGeometry>
        </mxCell>
        <mxCell id="LSYzsi996Ukaq7QPT6zm-89" value="" style="endArrow=classic;html=1;rounded=0;exitX=1;exitY=0.5;exitDx=0;exitDy=0;entryX=0;entryY=0.5;entryDx=0;entryDy=0;" edge="1" parent="1" source="LSYzsi996Ukaq7QPT6zm-12" target="LSYzsi996Ukaq7QPT6zm-87">
          <mxGeometry width="50" height="50" relative="1" as="geometry">
            <mxPoint x="435" y="458" as="sourcePoint" />
            <mxPoint x="480" y="425" as="targetPoint" />
          </mxGeometry>
        </mxCell>
        <mxCell id="LSYzsi996Ukaq7QPT6zm-90" value="Favourite" style="ellipse;whiteSpace=wrap;html=1;fillColor=#b1ddf0;strokeColor=#10739e;" vertex="1" parent="1">
          <mxGeometry x="715" y="900" width="90" height="50" as="geometry" />
        </mxCell>
        <mxCell id="LSYzsi996Ukaq7QPT6zm-91" value="" style="endArrow=classic;html=1;rounded=0;entryX=0;entryY=0.5;entryDx=0;entryDy=0;exitX=1;exitY=1;exitDx=0;exitDy=0;" edge="1" parent="1" source="LSYzsi996Ukaq7QPT6zm-20" target="LSYzsi996Ukaq7QPT6zm-90">
          <mxGeometry width="50" height="50" relative="1" as="geometry">
            <mxPoint x="605" y="770" as="sourcePoint" />
            <mxPoint x="725" y="915" as="targetPoint" />
          </mxGeometry>
        </mxCell>
        <mxCell id="LSYzsi996Ukaq7QPT6zm-92" value="Cost" style="ellipse;whiteSpace=wrap;html=1;fillColor=#b1ddf0;strokeColor=#10739e;" vertex="1" parent="1">
          <mxGeometry x="45" y="926" width="90" height="50" as="geometry" />
        </mxCell>
        <mxCell id="LSYzsi996Ukaq7QPT6zm-93" value="" style="endArrow=classic;html=1;rounded=0;exitX=0;exitY=1;exitDx=0;exitDy=0;entryX=1;entryY=0.5;entryDx=0;entryDy=0;" edge="1" parent="1" source="LSYzsi996Ukaq7QPT6zm-16" target="LSYzsi996Ukaq7QPT6zm-92">
          <mxGeometry width="50" height="50" relative="1" as="geometry">
            <mxPoint x="179" y="780" as="sourcePoint" />
            <mxPoint x="145" y="902" as="targetPoint" />
          </mxGeometry>
        </mxCell>
      </root>
    </mxGraphModel>
  </diagram>
</mxfile>
